<svg version="1.2" xmlns="http://www.w3.org/2000/svg" viewBox="0 0 1377 783" width="1377" height="783">
	<title>complify_logo</title>
	<style>
		.s0 { fill: #2bff71;stroke: #00b73d;paint-order:stroke fill markers;stroke-linejoin: round;stroke-width: 10 } 
		.s1 { fill: #ebf5ee } 
	</style>
	<path id="cup" fill-rule="evenodd" class="s0" d="m916 16l2 39c0 0 75-2.1 104-3 22 2.1 41 9.9 44 41 24 232.1-126 255.9-150 257-4 191.1-175 225-175 225l26 79c0 0 35 0.9 76 0 37-1.9 45 29 45 29l28 82-450-1c0 0 17-49.1 28-82 11-32.9 48-28 48-28l75-2c0 0 19-64.1 25-77-163-40.1-181-199.1-178-225-13-2.1-113-27.1-135-100.1-18-66-13.3-154-13-157.9 3-38.1 39-39 39-39l58-2 52 2 1-39zm-524 113c-16 135.5 74 144 74 144v-145c0 0-50-0.5-74 1zm524-1v146c0 0 87.5-5.5 75-145-23 0-75-1-75-1zm-225 38l-33 73-79 1 55 75-18 76 75-42 75 42-18-74 55-76-77-1z"/>
	<g id="braces">
		<path id="braces" class="s1" d="m264 29v63l-43 1c0 0-43.5-5-44 41-0.5 46 0 161 0 161 0 0 2.2 77.8-54.8 93.7 0 0.1-0.2 1.3-0.2 1.3 0 0 50.2 14.3 53.8 79.5-0.1-0.2 1 32.2 1.2 47.5 0.2 15.3 0 130 0 130 0 0-4 43 41 43 17.5 0 46 0 46 0v64h-69.5c0 0-86.2 6-92.5-85-1-91.7-1-175-1-175 0 0 6-68.3-58-70-12.3-0.7-19-1-19-1v-68c0 0 79 10.7 77-67-0.3-77 0-168 0-168 0 0 1-88.3 87-91 46 0 76 0 76 0z"/>
		<path id="braces" class="s1" d="m1120 757.1v-63.8l43.5-1c0 0 44.1 5 44.6-41.5 0.5-46.5 0-163 0-163 0 0-2.2-78.8 55.5-94.8 0-0.2 0.2-1.4 0.2-1.4 0 0-50.8-14.5-54.5-80.5 0.1 0.2-1-32.6-1.2-48.1-0.2-15.5 0-131.6 0-131.6 0 0 4-43.6-41.5-43.5-17.7 0-46.6 0-46.6 0v-64.8h70.4c0 0 87.2-6.1 93.6 86 1 92.9 1 177.2 1 177.2 0 0-6 69.2 58.8 70.9 12.4 0.7 19.2 1 19.2 1v68.9c0 0-80-10.9-78 67.8 0.4 78 0 170.1 0 170.1 0 0-1 89.4-88 92.1-46.6 0.1-77 0-77 0z"/>
	</g>
</svg>